HIERARCHY
ROOT RootJoint
{
    OFFSET   0.000000   0.000000   0.000000
    CHANNELS 6 Xposition Yposition Zposition Xrotation Yrotation Zrotation
    JOINT pelvis_lowerback
    {
        OFFSET   0.000000   0.093605   0.000000
        CHANNELS 3 Xrotation Yrotation Zrotation
        JOINT lowerback_torso
        {
            OFFSET   0.000000   0.100000   0.000000
            CHANNELS 3 Xrotation Yrotation Zrotation
            JOINT torso_head
            {
                OFFSET   0.000000   0.282350   0.000000
                CHANNELS 3 Xrotation Yrotation Zrotation
                End Site
                {
                    OFFSET   0.000000   0.192650   0.000000
                }
            }
            JOINT rTorso_Clavicle
            {
                OFFSET  -0.001000   0.157500   0.000000
                CHANNELS 3 Xrotation Yrotation Zrotation
                JOINT rShoulder
                {
                    OFFSET  -0.117647   0.000000   0.000000
                    CHANNELS 3 Xrotation Yrotation Zrotation
                    JOINT rElbow
                    {
                        OFFSET  -0.245000   0.000000   0.000000
                        CHANNELS 3 Xrotation Yrotation Zrotation
                        JOINT rWrist
                        {
                            OFFSET  -0.240000   0.000000   0.000000
                            CHANNELS 3 Xrotation Yrotation Zrotation
                            End Site
                            {
                                OFFSET  -0.116353  -0.002500   0.000000
                            }
                        }
                    }
                }
            }
            JOINT lTorso_Clavicle
            {
                OFFSET   0.001000   0.157500   0.000000
                CHANNELS 3 Xrotation Yrotation Zrotation
                JOINT lShoulder
                {
                    OFFSET   0.117647   0.000000   0.000000
                    CHANNELS 3 Xrotation Yrotation Zrotation
                    JOINT lElbow
                    {
                        OFFSET   0.245000   0.000000   0.000000
                        CHANNELS 3 Xrotation Yrotation Zrotation
                        JOINT lWrist
                        {
                            OFFSET   0.240000   0.000000   0.000000
                            CHANNELS 3 Xrotation Yrotation Zrotation
                            End Site
                            {
                                OFFSET   0.116353  -0.002500   0.000000
                            }
                        }
                    }
                }
            }
        }
    }
    JOINT rHip
    {
        OFFSET  -0.100000  -0.051395   0.000000
        CHANNELS 3 Xrotation Yrotation Zrotation
        JOINT rKnee
        {
            OFFSET   0.000000  -0.410000   0.000000
            CHANNELS 3 Xrotation Yrotation Zrotation
            JOINT rAnkle
            {
                OFFSET   0.000000  -0.390000   0.000000
                CHANNELS 3 Xrotation Yrotation Zrotation
                JOINT rToeJoint
                {
                    OFFSET   0.000000  -0.050000   0.130000
                    CHANNELS 3 Xrotation Yrotation Zrotation
                    End Site
                    {
                        OFFSET  -0.010000   0.002000   0.060000
                    }
                }
            }
        }
    }
    JOINT lHip
    {
        OFFSET   0.100000  -0.051395   0.000000
        CHANNELS 3 Xrotation Yrotation Zrotation
        JOINT lKnee
        {
            OFFSET   0.000000  -0.410000   0.000000
            CHANNELS 3 Xrotation Yrotation Zrotation
            JOINT lAnkle
            {
                OFFSET   0.000000  -0.390000   0.000000
                CHANNELS 3 Xrotation Yrotation Zrotation
                JOINT lToeJoint
                {
                    OFFSET   0.000000  -0.050000   0.130000
                    CHANNELS 3 Xrotation Yrotation Zrotation
                    End Site
                    {
                        OFFSET   0.010000   0.002000   0.060000
                    }
                }
            }
        }
    }
}
MOTION
Frames: 15
Frame Time:   0.008333
 -2.376719   0.925631   3.975860   0.000000   0.000000   0.000000   0.000000   0.000000   0.000000   0.000000   0.000000   0.000000   0.000000   0.000000   0.000000   0.000000   0.000000   0.000000   0.000000   0.000000   0.000000   0.000000   0.000000   0.000000   0.000000   0.000000   0.000000   0.000000   0.000000   0.000000   0.000000   0.000000   0.000000   0.000000   0.000000   0.000000   0.000000   0.000000   0.000000   0.000000   0.000000   0.000000   0.000000   0.000000   0.000000   0.000000   0.000000   0.000000   0.000000   0.000000   0.000000   0.000000   0.000000   0.000000   0.000000   0.000000   0.000000   0.000000   0.000000   0.000000   0.000000   0.000000   0.000000
 -2.376712   0.926047   3.971088   1.193912   0.635707   0.153114  -1.153151  -0.304797  -0.292317   1.280050  -0.506735   0.098467  -1.158593  -0.175335   0.049358   0.320302   0.057863   0.454151   0.355293  -0.580478   1.604383   0.046389   2.581422  -0.045840   0.011461  -1.051377  -2.402375   0.446739  -0.483533  -0.749946   0.629104   0.885791  -1.275290   0.020815  -1.151207   0.024367   0.042271   0.511639   2.560972  -2.408282  -0.476236  -0.209474   1.369271   0.000397   0.001814  -1.120021  -0.019429   0.297867   0.757485  -0.001766   0.000908  -3.113980   0.357353  -0.159608   3.618526   0.000624   0.031072  -1.943565   0.119888  -0.437273   0.787042   0.002865   0.007555
 -2.376851   0.926636   3.964298   2.215966   1.286614   0.293606  -1.762919  -0.632140  -0.597438   2.874898  -1.065579   0.195385  -2.223921  -0.351470   0.099917   0.631832   0.267950   1.535177   0.702169  -0.969495   3.617053   0.108402   5.088214  -0.096271   0.067012  -1.408615  -4.202203   0.878436  -1.150865  -2.126839   1.246557   1.564596  -3.000935   0.048756  -2.276542   0.050373   0.128241   0.759530   4.519401  -5.042479  -0.927037  -0.458464   2.655425   0.000764   0.003395  -2.167845  -0.042410   0.575937   1.422237  -0.002830   0.001720  -6.287499   0.751700  -0.282996   7.429248   0.003550   0.058690  -3.746219   0.256473  -0.838346   1.499723   0.004732   0.013148
 -2.377116   0.927048   3.956340   3.144786   1.864205   0.419369  -2.011304  -0.957929  -0.898656   4.635597  -1.611604   0.292831  -3.169802  -0.517336   0.145921   0.909454   0.647577   2.981170   1.033015  -1.183619   5.825898   0.170725   7.476836  -0.142420   0.148473  -1.408468  -5.299321   1.255653  -1.987042  -3.852306   1.839844   2.028630  -4.953393   0.077363  -3.377034   0.074805   0.235948   0.722073   5.744712  -7.855622  -1.353301  -0.739650   3.783412   0.001028   0.003720  -3.148422  -0.068522   0.835767   2.023884  -0.003442   0.001976  -9.394112   1.131820  -0.363891  11.187537   0.007771   0.076836  -5.429565   0.397514  -1.205474   2.148664   0.005889   0.016409
 -2.377457   0.927062   3.947824   4.036510   2.337273   0.540024  -2.021921  -1.275378  -1.195414   6.458950  -2.131534   0.388371  -4.017299  -0.672567   0.185912   1.138113   1.169937   4.616197   1.342421  -1.248154   8.100994   0.226028   9.749312  -0.180587   0.257848  -1.146873  -5.882544   1.559339  -2.953337  -5.746719   2.401847   2.307573  -6.991693   0.103277  -4.451377   0.096076   0.374537   0.413127   6.448218 -10.824703  -1.756207  -1.053845   4.763939   0.001158   0.002931  -4.066403  -0.097268   1.078633   2.568059  -0.003745   0.001682 -12.376676   1.490668  -0.409534  14.788958   0.011856   0.085634  -7.002421   0.539595  -1.541390   2.734389   0.006467   0.017739
 -2.377823   0.926527   3.939204   4.929780   2.698939   0.664998  -1.887136  -1.585392  -1.490117   8.272280  -2.625486   0.477552  -4.782199  -0.817808   0.219213   1.308428   1.788819   6.329919   1.625411  -1.200945  10.361868   0.270987  11.905023  -0.208967   0.391286  -0.691420  -6.123321   1.779781  -4.000684  -7.701149   2.926459   2.442109  -9.029529   0.124801  -5.493071   0.113196   0.542261  -0.112725   6.817777 -13.927721  -2.135202  -1.398956   5.617033   0.001153   0.001434  -4.925436  -0.127968   1.305603   3.061285  -0.003845   0.000992 -15.192613   1.826490  -0.427464  18.139467   0.014686   0.086707  -8.471409   0.680891  -1.848759   3.263176   0.006587   0.017689
 -2.378165   0.925328   3.930793   5.842817   2.956472   0.800723  -1.668310  -1.892752  -1.784653  10.029549  -3.099541   0.557117  -5.476555  -0.953748   0.245726   1.419581   2.453303   8.056522   1.880425  -1.083047  12.562676   0.304528  13.941029  -0.227137   0.538890  -0.113417  -6.138911   1.916400  -5.081057  -9.653296   3.410694   2.473234 -11.018492   0.141274  -6.494296   0.125743   0.729768  -0.787551   6.977225 -17.138919  -2.489555  -1.769343   6.363935   0.001035  -0.000380  -5.728954  -0.159963   1.517628   3.508890  -0.003816   0.000082 -17.833241   2.138870  -0.422478  21.254149   0.015857   0.082654  -9.844204   0.820024  -2.130228   3.737379   0.006344   0.016733
 -2.378884   0.922861   3.920964   6.817534   3.204157   0.603484  -0.953527  -2.150682  -1.591725  11.451777  -3.526840   0.483919  -6.326371  -1.166820   0.301290   1.358934   3.303047   9.558455   1.859329  -1.340086  14.321404   0.338170  16.435199  -0.250579   0.605738   0.200479  -5.515974   1.683923  -6.211040 -11.394842   3.434860   2.127252 -12.456443   0.148002  -7.460705   0.130074   0.776834  -1.299624   6.582239 -21.305844  -2.927480  -1.789847   9.709685  -0.002339  -0.007779  -7.259977  -0.419514   1.638133   3.487054  -0.003009   0.000165 -21.090070   2.461607   0.031727  25.180659   0.016413   0.087555 -11.459579   0.884109  -2.537177   4.195371   0.006313   0.016066
 -2.379826   0.919335   3.911278   7.784746   3.525728   0.346768  -0.184089  -2.437659  -1.382651  12.845551  -3.969676   0.439550  -7.100607  -1.365690   0.354135   1.248536   4.164240  10.822965   1.825999  -1.532927  15.851142   0.353239  18.795500  -0.265103   0.683253   0.669928  -5.046256   1.385105  -7.386897 -12.881097   3.422481   1.707919 -13.668347   0.150138  -8.403740   0.132304   0.828220  -1.944741   6.378587 -25.458433  -3.383211  -1.782224  13.336758  -0.007387  -0.011110  -8.673272  -0.666126   1.743605   3.476566  -0.002383   0.000172 -24.399318   2.739689   0.578337  28.925022   0.017410   0.093667 -12.961490   0.955823  -2.915029   4.623951   0.006050   0.015724
 -2.380900   0.914830   3.902020   8.776593   3.832277   0.083222   0.569676  -2.718424  -1.200247  14.167839  -4.402720   0.400739  -7.806863  -1.550915   0.400008   1.109323   4.991166  11.915704   1.788623  -1.695981  17.208112   0.355277  21.011107  -0.270701   0.766921   1.196360  -4.737270   1.053079  -8.524440 -14.184804   3.391402   1.282801 -14.722116   0.148921  -9.301225   0.131692   0.893909  -2.657902   6.353533 -29.559606  -3.841510  -1.786533  17.010080  -0.013010  -0.013123  -9.988524  -0.896928   1.837104   3.477705  -0.001909   0.000137 -27.700205   2.976980   1.159531  32.390477   0.018228   0.096769 -14.363821   1.033893  -3.264638   5.014862   0.005627   0.015184
 -2.382013   0.909393   3.893348   9.764913   4.058633  -0.155876   1.304403  -2.971735  -1.059002  15.415291  -4.808471   0.345450  -8.456607  -1.723550   0.437506   0.955268   5.763260  12.880119   1.752001  -1.849310  18.428332   0.348293  23.082547  -0.268742   0.848608   1.721693  -4.539280   0.707612  -9.584227 -15.362916   3.350944   0.883986 -15.665091   0.145331 -10.142533   0.128459   0.962208  -3.366319   6.432080 -33.587137  -4.302182  -1.809309  20.706215  -0.019156  -0.016260 -11.215030  -1.113159   1.920538   3.479584  -0.001532   0.000104 -30.906222   3.166175   1.748271  35.577253   0.018027   0.095248 -15.675070   1.116045  -3.587249   5.365241   0.005072   0.014212
 -2.383112   0.903055   3.885388  10.697794   4.217281  -0.364605   2.034892  -3.207904  -0.955365  16.605764  -5.193466   0.270041  -9.055343  -1.884989   0.467267   0.798715   6.467987  13.746622   1.720757  -2.006365  19.537802   0.335111  25.012869  -0.260876   0.924038   2.209445  -4.411266   0.360187 -10.556882 -16.454934   3.306667   0.521327 -16.529795   0.140122 -10.925366   0.123156   1.026798  -4.032538   6.553477 -37.458900  -4.745893  -1.848507  24.395050  -0.025450  -0.019250 -12.360096  -1.316511   1.994594   3.478279  -0.001222   0.000090 -33.951343   3.306445   2.334632  38.527382   0.016889   0.090812 -16.900628   1.199928  -3.885048   5.679837   0.004451   0.012998
 -2.384174   0.895831   3.878201  11.546088   4.332777  -0.545405   2.763697  -3.436227  -0.883209  17.751292  -5.566444   0.177782  -9.607234  -2.036157   0.490668   0.649723   7.098963  14.536740   1.698775  -2.175376  20.555916   0.317730  26.807061  -0.248639   0.991160   2.637464  -4.324080   0.017982 -11.443445 -17.486114   3.261969   0.196134 -17.337420   0.133830 -11.651332   0.116352   1.085076  -4.643362   6.678057 -41.121811  -5.160655  -1.901707  28.067633  -0.031409  -0.020997 -13.429709  -1.507643   2.060083   3.472620  -0.000960   0.000095 -36.809361   3.401906   2.913629  41.274284   0.015176   0.085066 -18.045290   1.284234  -4.160138   5.964121   0.003821   0.011723
 -2.385477   0.887477   3.870163  12.462034   4.311738  -0.703240   3.897511  -3.556474  -0.842114  18.475765  -5.861913  -0.007431 -10.367720  -2.118074   0.501005   0.379162   7.747823  15.184559   1.411100  -2.580871  21.317736   0.307998  29.243809  -0.245445   0.911395   2.564676  -3.832104  -0.353837 -12.275734 -18.244557   2.903056  -0.153883 -17.496300   0.124552 -12.407926   0.109056   1.147579  -5.111831   6.120215 -44.942429  -5.426774  -1.885141  31.789076  -0.037442  -0.020054 -14.685949  -1.668545   2.073778   3.385611  -0.000513   0.000357 -40.057656   3.458358   3.540588  44.368297   0.012767   0.079393 -19.425067   1.314745  -4.121799   6.128333   0.002731   0.009930
 -2.386844   0.878218   3.862161  13.361982   4.268059  -0.855557   5.072963  -3.647441  -0.834393  19.158843  -6.118904  -0.201566 -11.076956  -2.191429   0.490566   0.066426   8.412995  15.657875   1.106271  -2.913528  21.914915   0.291169  31.558106  -0.240980   0.841869   2.690448  -3.543247  -0.745125 -13.091746 -18.727442   2.545287  -0.501648 -17.455183   0.113812 -13.124908   0.101715   1.206048  -5.587904   5.843923 -48.655577  -5.679774  -1.861232  35.444574  -0.042287  -0.017976 -15.865651  -1.817864   2.083537   3.270658  -0.000069   0.000630 -43.368044   3.463106   4.171552  47.311350   0.010711   0.073807 -20.714867   1.341907  -4.083945   6.251229   0.001947   0.008316
